<svg width="569" height="500" viewBox="0 0 569 500" fill="none" xmlns="http://www.w3.org/2000/svg">
<path d="M301.132 350.026C310.337 350.026 317.8 342.563 317.8 333.358V266.687C317.8 257.483 310.34 250.02 301.132 250.02H267.797C258.593 250.02 251.129 257.48 251.129 266.687V333.358C251.129 342.562 258.591 350.026 267.797 350.026H301.132Z" fill="#504CFE"/>
<path d="M518.926 66.6715H401.141C401.141 63.3146 401.141 46.6467 401.141 50.0037C401.141 22.4306 378.711 0 351.137 0C347.518 0 212.843 0 217.794 0C190.221 0 167.789 22.4294 167.789 50.0037C167.789 53.3606 167.789 70.0285 167.789 66.6715H50.0037C22.4306 66.6715 0 89.1009 0 116.675C0 149.318 4.00029 177.906 11.9432 202.269C19.8859 226.632 31.7723 246.771 47.5457 262.519C74.0888 289.026 107.898 300.022 145.861 300.022H217.794C217.794 296.665 217.794 263.329 217.794 266.686C217.794 239.113 240.223 216.682 267.798 216.682C271.155 216.682 304.49 216.682 301.133 216.682C328.707 216.682 351.137 239.112 351.137 266.686C351.137 270.043 351.137 303.379 351.137 300.022H388.172C421.352 298.643 475.626 308.733 521.368 263.203C537.15 247.494 549.039 227.32 556.985 202.843C564.931 178.366 568.931 149.587 568.931 116.675C568.931 89.1021 546.502 66.6715 518.926 66.6715ZM201.126 50.0037C201.126 40.8074 208.596 33.3358 217.794 33.3358H351.137C360.333 33.3358 367.804 40.8063 367.804 50.0037C367.804 53.3606 367.804 70.0285 367.804 66.6715H201.126C201.126 63.3146 201.126 46.6467 201.126 50.0037Z" fill="#504CFE"/>
<path d="M388.627 333.32H351.137C351.137 360.893 328.708 383.323 301.133 383.323C297.776 383.323 264.44 383.323 267.798 383.323C240.224 383.323 217.794 360.894 217.794 333.32C213.985 333.32 141.89 333.32 146.007 333.32C98.4649 333.32 56.7074 318.731 23.9918 286.068C14.75 276.84 6.85828 266.453 0 255.342V483.33C0 492.543 7.45499 499.999 16.6679 499.999H552.263C561.475 499.999 568.931 492.543 568.931 483.33V256.027C561.98 267.307 554.057 277.671 544.889 286.799C492.294 339.118 436.284 331.068 388.627 333.32Z" fill="#504CFE"/>
</svg>
