<svg width="403" height="475" viewBox="0 0 403 475" fill="none" xmlns="http://www.w3.org/2000/svg">
<path d="M384.682 0H18.3182C13.4599 0 8.80061 1.66813 5.36523 4.63741C1.92995 7.60671 1.28718e-06 11.6339 1.28718e-06 15.8331V459.161C-0.00129245 462.144 0.972685 465.067 2.8097 467.593C4.64669 470.119 7.27206 472.145 10.3831 473.437C13.4941 474.73 16.9643 475.236 20.3939 474.898C23.8233 474.559 27.0725 473.391 29.767 471.526L201.5 352.763L373.233 471.511C375.925 473.374 379.173 474.543 382.601 474.882C386.029 475.22 389.498 474.715 392.608 473.424C395.718 472.134 398.344 470.111 400.182 467.587C402.021 465.063 402.998 462.143 403 459.161V15.8331C403 11.6339 401.07 7.60671 397.634 4.63741C394.199 1.66813 389.539 0 384.682 0Z" fill="#FFB321"/>
</svg>
