<svg width="439" height="500" viewBox="0 0 439 500" fill="none" xmlns="http://www.w3.org/2000/svg">
<path fill-rule="evenodd" clip-rule="evenodd" d="M363.059 297.671H253.471C262.513 270.555 267.32 247.73 268.112 228.269C269.981 182.357 248.29 164.186 229.764 157.016C228.989 156.712 228.183 156.496 227.36 156.371C213.005 154.105 207.895 160.855 204.508 168.481L204.064 169.481C203.568 170.577 203.244 171.743 203.103 172.937C198.522 212.102 181.787 248.852 155.245 278.031V496.833C158.207 497.917 161.23 498.819 164.301 499.533C165.133 499.73 165.983 499.834 166.837 499.846C176.011 499.944 186.947 499.994 199.558 499.994C212.139 499.994 226.383 499.944 242.192 499.846H345.432C351.468 499.848 357.397 498.246 362.61 495.206C367.824 492.165 372.136 487.796 375.106 482.544C378.075 477.292 379.595 471.345 379.51 465.313C379.424 459.281 377.738 453.38 374.621 448.213C381.511 442.998 386.157 435.356 387.615 426.84C389.073 418.326 387.234 409.575 382.472 402.365C389.158 396.699 393.399 388.673 394.311 379.958C395.223 371.244 392.735 362.514 387.366 355.588C392.075 350.803 395.263 344.736 396.531 338.145C397.798 331.556 397.089 324.739 394.492 318.551C391.894 312.363 387.525 307.08 381.933 303.365C376.34 299.652 369.774 297.667 363.059 297.671ZM132.334 101.245C131.64 99.1077 130.346 97.2148 128.607 95.7912C126.867 94.3676 124.755 93.4732 122.523 93.2144L90.5093 89.5337L77.1217 60.2637C76.1912 58.2164 74.6906 56.4802 72.7991 55.2627C70.9076 54.0451 68.7053 53.3976 66.4554 53.3976C64.2055 53.3976 62.0031 54.0451 60.1116 55.2627C58.2202 56.4802 56.7196 58.2164 55.7892 60.2637L42.4014 89.5337L10.3891 93.2144C8.15574 93.4706 6.04307 94.363 4.30293 95.7851C2.56274 97.2074 1.26828 99.0994 0.573732 101.236C-0.120823 103.373 -0.186186 105.664 0.385409 107.837C0.957015 110.009 2.14149 111.972 3.79778 113.491L27.5263 135.269L21.1383 166.828C20.697 169.03 20.8967 171.311 21.7135 173.401C22.5304 175.491 23.9302 177.303 25.7467 178.624C27.5634 179.943 29.7206 180.713 31.9624 180.844C34.2043 180.976 36.4367 180.461 38.3949 179.362L66.4524 163.531L94.5159 179.362C96.4734 180.466 98.7071 180.984 100.951 180.856C103.195 180.727 105.355 179.957 107.173 178.637C108.991 177.316 110.392 175.501 111.207 173.408C112.022 171.314 112.219 169.031 111.772 166.83L105.384 135.27L129.113 113.492C130.768 111.974 131.95 110.012 132.521 107.841C133.093 105.67 133.029 103.38 132.334 101.245ZM437.842 101.245C438.536 103.38 438.603 105.669 438.032 107.84C437.462 110.011 436.279 111.973 434.624 113.491L410.893 135.269L417.282 166.828C417.728 169.031 417.531 171.313 416.716 173.407C415.9 175.5 414.501 177.314 412.683 178.634C410.865 179.955 408.705 180.726 406.461 180.855C404.218 180.983 401.984 180.465 400.026 179.362L371.968 163.53L343.909 179.362C341.951 180.465 339.718 180.984 337.474 180.855C335.23 180.726 333.071 179.956 331.252 178.636C329.434 177.315 328.034 175.5 327.218 173.407C326.403 171.314 326.207 169.031 326.652 166.828L333.041 135.269L309.312 113.491C307.655 111.972 306.471 110.009 305.9 107.837C305.328 105.664 305.393 103.373 306.088 101.236C306.782 99.0994 308.077 97.2074 309.818 95.7851C311.558 94.363 313.67 93.4706 315.904 93.2144L347.906 89.5337L361.3 60.2637C362.23 58.2165 363.73 56.4806 365.621 55.2631C367.513 54.0455 369.715 53.3981 371.965 53.3981C374.214 53.3981 376.416 54.0455 378.307 55.2631C380.199 56.4806 381.698 58.2165 382.629 60.2637L396.023 89.5337L428.027 93.2144C430.261 93.4727 432.373 94.3669 434.112 95.7906C435.851 97.2143 437.148 99.1075 437.842 101.245ZM298.143 57.3172C297.449 55.1776 296.155 53.2815 294.416 51.8528C292.677 50.4241 290.566 49.5226 288.33 49.2546L247.118 44.5553L229.874 6.81842C228.933 4.78269 227.429 3.05874 225.539 1.85043C223.649 0.642131 221.452 0 219.208 0C216.965 0 214.768 0.642131 212.878 1.85043C210.987 3.05874 209.483 4.78269 208.543 6.81842L191.297 44.5525L150.086 49.2518C147.854 49.5134 145.744 50.4095 144.007 51.8334C142.269 53.2575 140.977 55.1497 140.283 57.2857C139.589 59.4216 139.522 61.7117 140.091 63.8842C140.661 66.0565 141.843 68.0202 143.495 69.5421L174.048 97.5914L165.822 138.216C165.377 140.418 165.575 142.701 166.391 144.793C167.207 146.886 168.606 148.699 170.424 150.019C172.243 151.338 174.402 152.108 176.645 152.237C178.888 152.365 181.121 151.847 183.079 150.744L219.208 130.377L255.337 150.745C257.294 151.849 259.527 152.366 261.77 152.238C264.013 152.109 266.172 151.339 267.989 150.02C269.807 148.7 271.208 146.887 272.024 144.794C272.84 142.702 273.037 140.42 272.592 138.219L264.368 97.5933L294.922 69.5421C296.576 68.0272 297.759 66.0693 298.33 63.9014C298.902 61.7334 298.834 59.4499 298.143 57.3172ZM131.792 299.792C129.728 296.511 126.864 293.806 123.469 291.931C120.074 290.056 116.259 289.071 112.381 289.07H31.44C25.3555 289.076 19.5215 291.493 15.2185 295.792C10.9154 300.092 8.49465 305.92 8.48738 312.001V477.051C8.49251 483.133 10.912 488.967 15.2151 493.269C19.5181 497.571 25.3531 499.992 31.44 500H112.381C116.258 499.998 120.073 499.014 123.466 497.14C126.861 495.268 129.725 492.565 131.792 489.286V299.792ZM38.1466 332.117C38.1466 329.008 39.3821 326.027 41.5812 323.83C43.7804 321.632 46.763 320.397 49.8731 320.397H58.4794C61.5895 320.397 64.5721 321.632 66.7713 323.83C68.9704 326.027 70.2059 329.008 70.2059 332.117C70.2059 335.225 68.9704 338.206 66.7713 340.403C64.5721 342.601 61.5895 343.836 58.4794 343.836H49.8741C48.334 343.836 46.8091 343.533 45.3863 342.944C43.9635 342.355 42.6706 341.492 41.5816 340.403C40.4925 339.315 39.6288 338.024 39.0394 336.601C38.4499 335.18 38.1466 333.656 38.1466 332.117Z" fill="#14A077"/>
</svg>
