<svg width="501" height="500" viewBox="0 0 501 500" fill="none" xmlns="http://www.w3.org/2000/svg">
<path d="M302.717 400.364C356.647 400.364 400.366 356.645 400.366 302.715C400.366 248.787 356.647 205.068 302.717 205.068C248.789 205.068 205.07 248.787 205.07 302.715C205.07 356.645 248.789 400.364 302.717 400.364Z" fill="#EB4D4D"/>
<path d="M491.442 449.989L410.799 369.346C400.396 386.158 386.183 400.372 369.371 410.775L450.014 491.418C461.455 502.858 480.003 502.858 491.442 491.418C502.883 479.977 502.883 461.429 491.442 449.989Z" fill="#EB4D4D"/>
<path d="M97.612 36.1321C97.612 26.0085 85.3723 20.9387 78.2138 28.097L27.9427 78.3681C20.7844 85.5266 25.8542 97.7663 35.9778 97.7663H86.2489C92.5245 97.7663 97.612 92.6789 97.612 86.4031V36.1321Z" fill="#EB4D4D"/>
<path d="M87.8867 253.892H185.54C193.517 234.822 206.015 218.097 221.692 205.068H87.8867V253.892Z" fill="#EB4D4D"/>
<path d="M177.269 283.178H73.2358C65.1466 283.178 58.5886 276.62 58.5886 268.531V190.413C58.5886 182.324 65.1466 175.765 73.2358 175.765H302.708C332.145 175.765 359.27 185.839 380.826 202.717V43.9415C380.826 19.7121 361.113 0 336.885 0H126.942V112.295C126.942 120.384 120.384 126.942 112.295 126.942H0V456.015C0 480.244 19.7121 499.956 43.9415 499.956H336.885C358.701 499.956 376.846 483.972 380.246 463.103L340.913 423.77C328.849 427.585 316.016 429.65 302.708 429.65C271.934 429.65 243.685 418.639 221.687 400.356H73.2358C65.1466 400.356 58.5886 393.797 58.5886 385.708C58.5886 377.62 65.1466 371.061 73.2358 371.061H195.782C189.977 362.013 185.298 352.181 181.923 341.766H73.2358C65.1466 341.766 58.5886 335.209 58.5886 327.119C58.5886 319.031 65.1466 312.472 73.2358 312.472H176.138C174.801 297.852 177.269 283.178 177.269 283.178ZM307.591 146.471H170.884C162.794 146.471 156.237 139.913 156.237 131.824C156.237 123.736 162.794 117.177 170.884 117.177H307.591C315.679 117.177 322.238 123.736 322.238 131.824C322.238 139.913 315.679 146.471 307.591 146.471ZM307.591 87.8829H170.884C162.794 87.8829 156.237 81.3249 156.237 73.2358C156.237 65.1466 162.794 58.5886 170.884 58.5886H307.591C315.679 58.5886 322.238 65.1466 322.238 73.2358C322.238 81.3249 315.679 87.8829 307.591 87.8829Z" fill="#EB4D4D"/>
</svg>
